<?xml version="1.0" standalone="no"?>
<!DOCTYPE svg PUBLIC "-//W3C//DTD SVG 20010904//EN"
 "http://www.w3.org/TR/2001/REC-SVG-20010904/DTD/svg10.dtd">
<svg version="1.0" xmlns="http://www.w3.org/2000/svg"
 width="260.000000pt" height="260.000000pt" viewBox="0 0 260.000000 260.000000"
 preserveAspectRatio="xMidYMid meet">
<metadata>
Created by potrace 1.11, written by Peter Selinger 2001-2013
</metadata>
<g transform="translate(0.000000,260.000000) scale(0.100000,-0.100000)"
fill="#000000" stroke="none">
<path d="M1048 2233 c-16 -2 -28 -7 -29 -11 0 -4 -2 -16 -4 -27 -2 -10 1 -25
7 -33 8 -9 8 -16 -2 -25 -10 -9 -11 -9 -5 1 5 11 3 11 -11 3 -11 -5 -32 -12
-47 -16 -15 -3 -25 -10 -22 -16 4 -5 15 -7 25 -4 10 3 29 8 42 11 37 8 41 9
81 23 31 10 36 15 26 27 -6 8 -7 14 -2 14 5 0 9 14 8 30 0 32 -3 33 -67 23z
m42 -75 c0 -6 -3 -8 -7 -5 -3 4 -12 2 -19 -4 -8 -7 -14 -6 -20 2 -4 8 -3 9 4
5 7 -4 12 -2 12 3 0 6 7 11 15 11 8 0 15 -5 15 -12z"/>
<path d="M1126 2231 c-6 -9 -2 -39 6 -47 4 -3 4 -12 1 -20 -5 -12 7 -19 30
-15 4 0 7 -3 7 -8 0 -5 10 -9 23 -9 31 -2 50 -6 65 -16 8 -5 18 -4 25 3 10 10
-1 16 -25 12 -5 0 -8 3 -8 8 0 6 -9 8 -20 6 -11 -2 -23 1 -26 7 -4 7 -2 8 4 4
7 -4 12 -6 12 -4 1 2 3 19 6 39 4 25 1 36 -8 37 -7 0 -30 3 -51 5 -20 3 -39 2
-41 -2z m61 -83 c-3 -8 -6 -5 -6 6 -1 11 2 17 5 13 3 -3 4 -12 1 -19z"/>
<path d="M1273 2173 c0 -10 6 -24 14 -31 7 -8 11 -17 8 -22 -3 -4 2 -11 11
-14 24 -9 26 -8 13 17 -10 18 -8 18 14 -5 28 -30 42 -34 53 -16 4 6 3 8 -3 5
-6 -4 -19 1 -29 9 -16 13 -16 15 -2 10 10 -3 20 -1 23 4 11 18 -8 40 -43 50
-51 14 -59 13 -59 -7z"/>
<path d="M903 2169 c-4 -4 -19 -9 -33 -11 -14 -1 -30 -7 -36 -13 -14 -14 -12
-74 3 -80 7 -2 13 -1 13 4 0 4 6 8 13 9 6 0 21 3 32 6 11 2 23 5 28 5 4 1 7 5
7 9 0 10 -46 9 -56 -1 -4 -4 -14 -7 -23 -7 -11 1 -8 5 9 14 13 8 33 12 43 10
16 -3 37 28 37 55 0 10 -27 10 -37 0z"/>
<path d="M1046 2109 c-28 -10 -52 -16 -55 -14 -2 3 -9 1 -15 -4 -9 -7 -53 -22
-108 -37 -5 -1 -11 -3 -15 -4 -5 -1 -11 -2 -15 -2 -3 1 -9 -5 -12 -13 -7 -19
-5 -19 90 5 43 12 86 22 94 24 8 1 35 8 59 15 27 8 58 10 80 5 20 -4 45 -8 56
-10 75 -10 100 -16 105 -22 3 -4 20 -7 38 -8 25 -1 32 3 32 17 0 12 -5 16 -15
13 -8 -4 -15 -2 -15 3 0 5 -10 9 -22 10 -13 1 -34 4 -48 7 -158 36 -175 37
-234 15z"/>
<path d="M1146 2068 c3 -4 1 -8 -3 -8 -16 0 -9 -40 7 -41 8 0 22 -2 30 -4 35
-7 90 -15 146 -20 55 -6 60 -5 60 14 0 11 -4 17 -8 15 -4 -3 -8 -1 -8 4 0 5
-14 8 -30 7 -17 -1 -33 1 -36 6 -3 5 -17 9 -32 9 -15 0 -51 6 -79 13 -29 8
-50 10 -47 5z"/>
<path d="M1060 2059 c0 -6 -10 -8 -55 -11 -14 -1 -25 -5 -25 -8 0 -3 -14 -7
-32 -8 -17 -2 -37 -7 -43 -12 -7 -5 -15 -7 -18 -3 -4 3 -13 1 -20 -5 -8 -7
-17 -9 -21 -5 -10 10 -26 -17 -26 -43 0 -17 5 -21 25 -18 14 1 32 7 39 13 7 6
15 9 18 6 3 -3 33 3 67 14 33 10 61 17 61 15 0 -3 13 2 30 11 16 8 32 15 35
15 3 0 9 0 14 0 4 0 6 11 4 24 -4 18 -11 23 -29 22 -13 0 -24 -4 -24 -7z"/>
<path d="M2120 2050 c0 -19 5 -25 17 -22 13 3 15 -5 16 -84 1 -32 -5 -47 -26
-68 -15 -15 -27 -25 -27 -22 0 3 -11 1 -26 -4 -23 -9 -67 -19 -104 -24 -38 -5
-92 -41 -162 -108 -10 -10 -18 -13 -18 -7 0 8 -4 8 -14 0 -11 -9 -17 -9 -27 1
-8 8 -32 19 -54 25 -33 10 -42 10 -56 -3 -13 -12 -19 -12 -25 -3 -4 8 -3 10 4
5 7 -4 12 -1 12 8 0 22 30 24 78 4 23 -9 42 -15 42 -13 0 3 11 0 25 -5 20 -8
25 -6 25 6 0 8 5 12 10 9 6 -3 10 -1 10 6 0 32 173 131 201 114 5 -4 9 -2 9 3
0 5 18 8 41 8 47 -2 59 12 62 76 2 51 -17 62 -21 12 -2 -33 -23 -69 -34 -58
-3 2 -29 -1 -57 -7 -29 -6 -60 -12 -69 -14 -9 -2 -18 -4 -19 -5 -4 -3 -21 -7
-37 -9 -7 0 -25 -13 -39 -27 -26 -26 -87 -44 -87 -25 0 6 -6 8 -13 5 -18 -6
-56 9 -85 34 -14 12 -34 19 -52 17 -17 -1 -46 5 -65 15 -33 17 -40 17 -93 3
-67 -18 -133 -24 -147 -13 -5 4 -20 6 -33 5 -13 -1 -25 1 -27 5 -2 3 -18 5
-34 4 -17 -1 -31 1 -31 6 0 4 -10 7 -22 6 -25 -1 -40 -32 -27 -57 4 -8 4 -21
-1 -29 -5 -8 -5 -21 1 -31 6 -12 5 -20 -1 -24 -7 -4 -8 -11 -1 -18 12 -15 12
-29 -1 -44 -8 -10 -5 -13 10 -13 22 0 36 30 33 71 -2 27 24 45 76 52 12 2 25
6 28 9 3 3 19 4 35 2 17 -2 30 0 30 5 0 5 9 7 20 4 11 -3 20 -12 20 -20 0 -9
-6 -13 -15 -10 -8 4 -17 2 -20 -3 -3 -5 -14 -7 -25 -5 -12 2 -20 -2 -20 -10 0
-9 9 -12 29 -10 59 8 111 -68 70 -103 -25 -21 -46 -24 -101 -11 -41 9 -46 13
-38 29 5 9 6 20 3 24 -3 3 -1 6 5 6 7 0 12 5 12 12 0 6 -13 0 -28 -15 -15 -15
-33 -27 -40 -27 -10 0 -43 -50 -42 -65 0 -3 0 -6 -1 -7 -1 -5 -9 -48 -13 -70
-2 -13 1 -34 6 -48 16 -42 31 -230 18 -230 -4 0 -7 -6 -8 -12 -2 -23 -7 -43
-15 -55 -5 -7 -5 -13 -2 -13 11 0 -78 -121 -97 -131 -10 -5 -18 -14 -18 -20 0
-6 5 -7 10 -4 5 3 10 1 10 -5 0 -24 93 55 105 90 2 8 19 21 37 28 18 7 47 20
65 27 18 8 35 11 37 6 6 -9 0 -97 -9 -141 -6 -30 -18 -120 -18 -137 0 -7 -5
-13 -10 -13 -5 0 -5 -5 1 -13 13 -15 1 -39 -14 -29 -13 8 -54 88 -79 155 -10
26 -21 47 -24 47 -4 0 -17 -7 -29 -16 -12 -8 -22 -12 -22 -7 0 13 -20 -21 -20
-35 0 -7 4 -11 9 -8 5 3 12 -9 16 -27 9 -36 12 -46 14 -49 2 -2 4 -14 6 -28
11 -67 10 -65 54 -68 24 -2 50 2 59 10 9 7 14 9 10 4 -7 -8 19 -41 31 -41 3 0
12 -4 19 -8 7 -5 12 -3 12 5 0 10 2 10 9 -1 6 -9 10 -10 16 -2 4 7 12 8 18 3
14 -10 27 -10 45 1 21 14 3 27 -23 17 -17 -6 -25 -6 -25 1 0 6 -4 7 -10 4 -5
-3 -10 -1 -10 4 0 6 10 9 23 7 12 -2 27 1 33 6 7 5 18 7 25 6 18 -4 13 30 -7
49 -19 19 -17 39 6 92 11 23 18 47 15 51 -3 5 -1 11 4 14 13 9 51 130 51 164
0 44 -18 55 -52 31 -15 -11 -28 -17 -28 -13 0 5 -5 3 -12 -4 -7 -7 -18 -12
-26 -12 -8 0 -20 -7 -27 -17 -8 -11 -14 -13 -19 -4 -5 7 10 19 41 33 26 12 50
22 53 22 17 3 82 48 86 61 11 28 -2 26 -70 -10 -36 -19 -66 -33 -66 -31 0 2
-21 -4 -47 -14 -31 -11 -56 -15 -69 -10 -72 28 -32 160 58 194 24 9 54 18 68
20 14 3 25 5 25 7 0 1 12 2 27 3 15 1 30 5 34 9 4 4 17 7 28 7 12 0 31 11 44
25 13 13 36 30 52 37 17 7 30 15 30 18 0 3 10 6 22 7 60 5 111 51 87 79 -9 11
-8 14 5 14 9 0 16 -4 16 -10 0 -5 7 -10 15 -10 8 0 15 -4 15 -9 0 -5 15 -12
33 -16 17 -4 39 -9 47 -11 35 -9 170 -4 170 5 0 5 -97 29 -185 46 -11 2 -22 4
-25 5 -3 1 -9 2 -13 1 -5 -1 -5 3 -2 9 4 6 14 9 24 6 12 -5 11 -2 -3 9 -16 12
-17 15 -4 15 9 0 34 18 56 40 41 42 111 79 156 82 14 1 26 6 26 10 0 4 6 5 14
2 18 -7 96 34 98 52 0 8 1 20 2 27 1 6 6 15 11 19 6 5 6 8 -2 8 -8 0 -11 17
-9 53 2 28 1 58 -1 65 -6 14 -53 17 -53 2z m-420 -335 c7 -8 16 -13 20 -10 4
3 11 -2 14 -11 6 -16 -6 -12 -36 14 -20 17 -42 6 -33 -17 5 -12 4 -13 -6 -4
-10 10 -9 15 1 28 16 19 24 19 40 0z"/>
<path d="M1086 1983 c-4 -5 -16 -9 -27 -9 -10 -1 -21 -3 -24 -4 -3 -1 -9 -4
-15 -5 -5 -1 -12 -4 -15 -5 -6 -3 -9 -4 -59 -14 -21 -4 -50 -12 -65 -18 -14
-6 -33 -12 -41 -12 -9 -1 -15 -11 -16 -26 0 -14 -3 -31 -7 -37 -8 -13 18 -37
33 -28 5 3 18 8 27 10 10 2 43 11 73 20 30 9 80 23 110 31 60 16 58 13 51 92
-1 13 -14 16 -25 5z"/>
<path d="M1140 1970 c0 -11 5 -21 10 -21 6 -1 13 -2 18 -4 17 -4 80 -15 112
-19 19 -2 35 -5 35 -6 0 -1 12 -3 28 -5 19 -3 30 2 37 15 11 20 -4 31 -50 35
-98 10 -139 15 -162 20 -23 4 -28 2 -28 -15z"/>
<path d="M1074 1858 c-3 -5 -11 -7 -17 -5 -7 2 -36 -4 -64 -14 -29 -10 -53
-16 -53 -13 0 3 -8 0 -19 -5 -10 -6 -33 -13 -51 -16 -45 -8 -52 -13 -45 -36 4
-11 2 -19 -5 -19 -8 0 -8 -6 0 -20 12 -22 40 -22 79 0 12 6 21 9 21 6 0 -3 20
1 45 8 25 8 45 12 45 9 0 -3 7 0 15 7 8 6 19 9 24 6 5 -4 12 -2 16 4 4 6 10 8
14 6 22 -14 37 22 32 75 -1 17 -28 22 -37 7z"/>
<path d="M1077 1744 c-3 -3 -20 -8 -39 -11 -18 -3 -40 -9 -49 -14 -9 -4 -19
-6 -21 -3 -3 2 -18 0 -34 -7 -30 -11 -70 -21 -91 -22 -7 0 -13 -4 -13 -9 0 -5
-3 -7 -7 -5 -5 3 -8 -6 -8 -19 0 -13 3 -24 7 -24 5 0 7 -3 7 -7 -4 -25 2 -35
19 -28 18 7 50 14 92 20 14 2 25 4 25 5 0 2 19 5 85 14 54 7 65 18 65 67 0 35
-4 45 -17 46 -9 1 -18 -1 -21 -3z"/>
<path d="M1149 1655 c-26 -27 -33 -29 -120 -39 -31 -4 -67 -9 -80 -12 -13 -3
-37 -8 -53 -10 -76 -14 -82 -22 -90 -116 -3 -40 -1 -48 13 -48 10 0 22 14 29
33 9 24 15 29 21 18 6 -10 2 -24 -12 -45 -12 -17 -24 -32 -27 -34 -25 -13 -34
-24 -36 -44 -1 -12 -3 -23 -4 -23 -3 0 -10 -37 -14 -75 -2 -19 -5 -37 -6 -40
-3 -6 -2 -9 4 -44 3 -14 1 -26 -3 -26 -11 0 -31 -69 -24 -86 3 -9 11 -13 18
-10 7 2 25 -2 40 -10 37 -19 51 -18 68 6 12 17 21 19 53 13 54 -9 96 -6 122
10 6 5 16 6 21 2 5 -3 13 0 17 6 4 8 3 9 -4 5 -7 -4 -12 -2 -12 3 0 6 3 11 8
11 11 0 44 62 49 94 3 16 11 39 19 51 14 22 25 107 16 132 -3 8 -22 1 -57 -22
-29 -18 -56 -31 -59 -28 -3 4 -6 1 -6 -6 0 -7 -4 -9 -10 -6 -5 3 -10 2 -10 -3
0 -6 -7 -13 -17 -16 -9 -4 18 29 60 74 43 44 78 83 78 87 1 5 2 42 4 83 1 47
8 87 19 108 20 39 18 40 -15 7z"/>
<path d="M770 1543 c0 -4 -12 -21 -26 -38 -71 -82 -170 -242 -179 -291 -2 -10
-4 -19 -5 -19 -1 0 -3 -8 -5 -17 -2 -10 -1 -18 1 -18 6 0 28 53 26 63 -1 4 3
7 9 7 5 0 7 5 4 10 -3 6 -3 10 2 10 4 0 19 20 32 45 13 24 27 42 32 39 5 -2 6
-26 3 -52 -3 -26 -6 -56 -7 -67 -1 -11 -6 -26 -10 -32 -5 -8 -3 -13 5 -13 9 0
9 -3 2 -8 -6 -4 -10 -17 -9 -29 1 -13 -1 -23 -4 -23 -4 0 -8 -12 -9 -27 -1
-15 -8 -30 -15 -35 -6 -4 -8 -8 -3 -8 5 0 4 -6 -2 -12 -11 -14 -37 -110 -47
-172 -3 -22 -8 -42 -11 -45 -2 -3 5 -10 17 -17 18 -9 25 -8 41 8 12 12 26 17
39 13 11 -4 19 -2 19 4 0 6 7 11 15 11 12 0 14 7 9 33 -15 82 -12 107 24 145
14 16 16 32 3 32 -5 0 -8 8 -6 18 2 9 4 17 5 17 1 0 3 8 5 18 2 10 7 26 11 35
7 17 11 34 17 70 2 9 5 22 8 27 3 6 5 31 5 57 -1 27 2 48 6 48 3 0 5 15 4 33
-2 17 -1 36 2 41 9 15 9 137 0 142 -4 3 -8 2 -8 -3z"/>
<path d="M1537 1468 c-10 -5 -25 -11 -35 -13 -9 -2 -28 -8 -42 -13 -14 -5 -29
-11 -35 -12 -52 -13 -131 -42 -146 -53 -32 -25 -41 -58 -30 -118 2 -10 61 -17
61 -7 0 4 9 8 20 8 11 0 20 5 20 11 0 5 5 7 10 4 6 -3 10 -1 10 5 0 6 4 9 9 5
5 -3 12 -1 16 5 4 6 11 8 16 5 5 -4 9 -1 9 5 0 6 4 9 9 6 5 -3 14 1 21 9 7 8
18 15 25 15 8 0 15 6 18 13 7 22 39 -14 34 -39 -4 -22 -3 -22 23 -9 15 8 30
11 34 8 3 -4 6 -1 6 6 0 7 10 10 26 7 15 -3 35 -1 45 5 15 7 17 6 13 -6 -4 -8
-11 -16 -18 -16 -6 -1 -24 -2 -41 -3 -42 -3 -58 -9 -72 -26 -20 -24 -15 -40
13 -40 14 0 34 -5 44 -10 13 -7 21 -7 25 0 4 6 11 8 16 5 5 -4 9 -3 9 2 0 4
14 14 31 22 37 16 48 40 26 56 -10 7 -17 15 -17 19 0 4 -15 23 -32 42 -18 19
-39 48 -48 66 -17 35 -48 51 -73 36z"/>
<path d="M676 802 c-3 -5 -19 -7 -37 -4 -23 3 -30 1 -27 -9 3 -8 22 -13 54
-14 59 -1 69 3 53 21 -13 16 -35 19 -43 6z"/>
<path d="M1427 796 c-7 -19 0 -25 24 -19 15 4 17 8 8 19 -15 18 -25 18 -32 0z"/>
<path d="M1668 722 c-19 -4 -20 -6 -21 -154 0 -49 2 -91 6 -94 13 -14 38 20
37 50 -1 17 -2 36 -1 42 1 5 26 11 57 12 86 2 113 35 89 109 -8 25 -46 36
-107 30 -21 -2 -39 -1 -40 3 -2 3 -11 4 -20 2z m130 -55 c8 -6 9 -14 3 -25 -7
-12 -24 -17 -60 -18 -28 0 -52 2 -52 5 -10 44 -7 47 45 46 28 0 57 -4 64 -8z"/>
<path d="M418 708 c-7 -4 -9 -8 -4 -8 5 0 2 -8 -5 -17 -10 -11 -10 -14 -1 -9
15 9 15 1 1 -26 -6 -11 -7 -18 -2 -15 10 7 10 -59 0 -69 -3 -4 -2 -17 3 -30 7
-16 6 -24 -1 -24 -8 0 -8 -4 0 -13 6 -8 8 -16 5 -20 -11 -10 131 -5 151 6 11
6 23 10 28 9 4 -1 7 5 7 13 0 8 4 15 8 15 14 0 29 43 26 68 -2 12 1 22 7 22 6
0 9 -8 7 -17 -5 -30 21 -77 55 -100 43 -29 105 -25 141 8 93 88 20 234 -104
208 -36 -8 -95 -63 -85 -79 4 -6 -1 -10 -9 -10 -9 0 -16 6 -16 13 0 17 -41 62
-65 71 -27 12 -132 14 -147 4z m156 -57 c34 -38 19 -128 -24 -132 -58 -6 -101
-5 -106 2 -3 5 -1 9 3 9 5 0 7 31 6 69 -3 69 -3 70 24 73 44 5 81 -3 97 -21z
m254 -6 c52 -62 -10 -155 -88 -130 -25 8 -51 45 -54 79 -3 25 36 81 48 69 3
-3 6 -2 6 4 0 22 64 5 88 -22z"/>
<path d="M924 712 c-10 -8 -13 -226 -3 -236 3 -4 12 -4 20 -1 11 4 14 25 12
90 -1 70 1 83 12 72 7 -6 11 -15 8 -19 -2 -5 1 -8 6 -8 6 0 11 -4 11 -9 0 -15
46 -61 60 -61 12 0 59 44 60 55 0 3 10 17 24 31 l24 26 -2 -81 c-2 -58 2 -85
11 -93 8 -6 17 -8 20 -4 12 12 11 236 -1 237 -24 3 -42 -3 -53 -18 -7 -9 -29
-36 -49 -60 l-37 -44 -26 33 c-14 18 -26 35 -26 38 1 21 -56 62 -71 52z"/>
<path d="M1330 704 c0 -8 10 -35 22 -60 14 -31 22 -67 22 -108 1 -47 4 -61 16
-61 11 0 16 15 18 60 2 37 13 81 28 114 13 30 21 58 16 63 -8 8 -54 -24 -53
-36 3 -19 0 -26 -11 -26 -6 0 -9 3 -5 6 3 4 -1 13 -9 21 -8 8 -12 18 -9 23 3
4 -4 10 -15 13 -13 3 -20 0 -20 -9z"/>
<path d="M1576 701 c-9 -10 -16 -22 -16 -28 0 -6 -7 -14 -16 -17 -8 -3 -12
-10 -9 -16 3 -5 2 -10 -2 -10 -5 0 -22 -22 -38 -50 -16 -27 -33 -50 -37 -50
-4 0 -8 -7 -8 -15 0 -8 -4 -15 -10 -15 -5 0 -10 -7 -10 -15 0 -32 39 -14 74
35 20 28 36 52 36 55 0 11 40 49 41 39 0 -5 0 -40 -1 -77 -1 -62 1 -68 17 -65
15 3 18 13 18 56 0 28 3 52 6 52 4 0 3 16 -1 35 -4 20 -4 38 1 41 5 3 5 13 -1
25 -8 14 -7 19 1 19 7 0 9 3 5 7 -13 13 -35 11 -50 -6z"/>
<path d="M1876 713 c-3 -4 -6 -59 -6 -124 0 -110 1 -118 19 -116 11 0 17 5 15
9 -3 4 -2 8 3 8 4 0 7 49 5 109 -2 80 -7 111 -17 114 -7 3 -16 3 -19 0z"/>
</g>
</svg>
